# xmcd CD database file
#
# Track frame offsets:
#	150
#	11877
#	26910
#	39986
#	54498
#	67652
#	82113
#	96784
#	116388
#	126472
#	148282
#	168346
#	180448
#	195140
#	208660
#	220695
#	237019
#	271645
#	291368
#	308985
#	320417
#
# Disc length: 4396 seconds
#
# Revision: 0
# Processed by: cddbd v1.5.1PL0 Copyright (c) Steve Scherf et al.
# Submitted via: CDex 1.51
#
DISCID=28112a15
DTITLE=Ella Fitzgerald - The Quintessence, N.Y. 1936-1948 - CD2
DYEAR=1900
DGENRE=Blues
TTITLE0=Petootie Pie
TTITLE1=That"s rich (=Bugle Call Rag)
TTITLE2=You won"t be satisfied
TTITLE3=The Frim Fram Sauce
TTITLE4=I'm just lucky so and so
TTITLE5=Guilty
TTITLE6=Oh, Lady be good
TTITLE7=Budella (=Blue Skies)
TTITLE8=Almost like being in love
TTITLE9=Lover Man
TTITLE10=How high the Moon I
TTITLE11=My Baby likes to Bebop
TTITLE12=How  high the Moon II
TTITLE13=Ool-Ya-Koo
TTITLE14=Love that boy
TTITLE15=Mr. Paganini
TTITLE16=How High the moon III
TTITLE17=Flying Home II
TTITLE18=Bonus
TTITLE19=Bonus
TTITLE20=Bonus
EXTD=
EXTT0=
EXTT1=
EXTT2=
EXTT3=
EXTT4=
EXTT5=
EXTT6=
EXTT7=
EXTT8=
EXTT9=
EXTT10=
EXTT11=
EXTT12=
EXTT13=
EXTT14=
EXTT15=
EXTT16=
EXTT17=
EXTT18=
EXTT19=
EXTT20=
PLAYORDER=
